<?xml version="1.0" encoding="UTF-8"?>
<svg width="76px" height="76px" viewBox="0 0 76 76" version="1.1" xmlns="http://www.w3.org/2000/svg" xmlns:xlink="http://www.w3.org/1999/xlink">
    <title>Dejavu</title>
    <g id="Dejavu" stroke="none" stroke-width="1" fill="none" fill-rule="evenodd">
        <path d="M37.875,8.5 C54.2338574,8.5 67.5,21.7050083 67.5,38 C67.5,54.2949917 54.2338574,67.5 37.875,67.5 C28.8426698,67.5 20.4714971,63.4464648 14.8810503,56.60194 C14.0076318,55.5325918 14.1664643,53.9576683 15.2358125,53.0842498 C16.3051606,52.2108314 17.8800842,52.3696639 18.7535026,53.439012 C23.4034716,59.1320863 30.3587307,62.5 37.875,62.5 C51.4775903,62.5 62.5,51.5283848 62.5,38 C62.5,24.4716152 51.4775903,13.5 37.875,13.5 C24.5218468,13.5 13.6551138,24.0729212 13.2610672,37.2584021 L15.6515685,37.2580645 C16.0744975,37.2580645 16.483118,37.4112256 16.8018485,37.6892181 C17.5302273,38.3245002 17.605697,39.4299658 16.9704149,40.1583445 L12.0688464,45.7782074 C12.0165545,45.8381624 11.960235,45.8944819 11.90028,45.9467738 C11.1719013,46.5820559 10.0664357,46.5065862 9.43115359,45.7782074 L4.52958507,40.1583445 C4.25159261,39.839614 4.09843148,39.4309935 4.09843148,39.0080645 C4.09843148,38.0415662 4.88193317,37.2580645 5.84843148,37.2580645 L8.25919101,37.2578457 C8.65470655,21.305942 21.7652281,8.5 37.875,8.5 Z" id="Circle" fill="#007AFF" fill-rule="nonzero" opacity="0.5"></path>
        <path d="M30.0419851,24.420566 L37.3919851,32.0680876 C38.1573886,32.864474 38.132272,34.1305548 37.3358856,34.8959583 C36.5394993,35.6613618 35.2734184,35.6362453 34.5080149,34.8398589 L30.5999975,30.7724516 L30.6,50.1935484 C30.6,51.2981179 29.7045695,52.1935484 28.6,52.1935484 C27.4954305,52.1935484 26.6,51.2981179 26.6,50.1935484 L26.5999975,30.7714516 L22.6919851,34.8398589 C21.966866,35.5943302 20.7923855,35.6565815 19.9936214,35.0102449 L19.8641144,34.8959583 C19.067728,34.1305548 19.0426114,32.864474 19.8080149,32.0680876 L27.1580149,24.420566 C27.9449785,23.6017468 29.2550215,23.6017468 30.0419851,24.420566 Z M46.8,23.8064516 C47.9045695,23.8064516 48.8,24.7018821 48.8,25.8064516 L48.7999975,45.2264516 L52.7080149,41.1601411 C53.433134,40.4056698 54.6076145,40.3434185 55.4063786,40.9897551 L55.5358856,41.1040417 C56.332272,41.8694452 56.3573886,43.135526 55.5919851,43.9319124 L48.2419851,51.579434 C47.4550215,52.3982532 46.1449785,52.3982532 45.3580149,51.579434 L38.0080149,43.9319124 C37.2426114,43.135526 37.267728,41.8694452 38.0641144,41.1040417 L38.1936214,40.9897551 C38.9923855,40.3434185 40.166866,40.4056698 40.8919851,41.1601411 L44.7999975,45.2274516 L44.8,25.8064516 C44.8,24.7520898 45.6158778,23.8882865 46.6507377,23.8119373 L46.8,23.8064516 Z" id="Arrows" fill="#007AFF" fill-rule="nonzero"></path>
    </g>
</svg>